<?xml version="1.0" encoding="iso-8859-1"?>
<!-- Generator: Adobe Illustrator 25.4.1, SVG Export Plug-In . SVG Version: 6.00 Build 0)  -->
<svg version="1.1" id="Layer_2_00000140708563978981066350000010422524906026217911_"
	 xmlns="http://www.w3.org/2000/svg" xmlns:xlink="http://www.w3.org/1999/xlink" x="0px" y="0px" viewBox="0 0 1798.974 785.576"
	 style="enable-background:new 0 0 1798.974 785.576;" xml:space="preserve">
<g style="enable-background:new    ;">
	<path style="fill:#FFFFFF;" d="M868.174,206.195h-80.951c-3.563,0-5.091-2.545-5.091-5.091c0-2.545,1.527-5.091,5.091-5.091h86.552
		c3.055,0,5.091,3.055,5.091,5.601v37.675c0,86.042-54.985,137.463-124.227,137.463c-71.277,0-123.717-53.458-123.717-137.463
		V137.463C630.921,49.385,689.471,0,755.657,0c35.129,0,70.259,15.273,95.206,44.803c1.019,1.018,1.527,2.546,1.527,4.073
		c0,4.073-6.109,6.618-9.164,2.545c-3.564-4.582-9.673-10.691-15.274-15.274c-20.365-16.801-46.839-25.965-73.314-25.965
		c-62.622,0-113.535,46.84-113.535,126.263v103.352c0,79.424,50.403,126.772,113.535,126.772
		c63.132,0,113.535-47.349,113.535-126.772V206.195z"/>
	<path style="fill:#FFFFFF;" d="M1127.821,360.969c2.546,3.564-0.509,8.146-4.072,8.146c-2.037,0-3.564-1.018-4.582-2.545
		l-97.752-149.174H948.1v146.628c0,3.564-3.055,5.091-5.601,5.091c-2.545,0-5.091-1.527-5.091-5.091V12.728
		c0-3.055,3.055-5.091,5.601-5.091h70.259c72.805,0,116.08,47.349,116.08,104.88c0,54.476-41.748,99.788-95.715,104.37
		L1127.821,360.969z M948.1,207.213h76.878c50.912,0,93.679-42.766,93.679-94.697c0-51.931-38.693-94.697-104.88-94.697H948.1
		V207.213z"/>
</g>
<g style="enable-background:new    ;">
	<path style="fill:#FFFFFF;" d="M162.787,754.519c-20.365,19.856-47.858,31.057-78.405,31.057c-16.292,0-32.584-4.073-47.349-12.728
		c-14.765-8.146-27.493-19.856-36.148-33.603c-2.037-3.055-0.509-8.146,4.073-8.146c2.037,0,3.564,1.019,4.583,2.546
		c16.292,24.947,46.839,41.748,76.369,41.748c55.495,0,97.243-40.729,97.243-95.206c0-68.731-61.095-89.097-87.06-94.697
		c-23.42-5.092-43.785-14.765-58.55-28.002c-16.801-15.273-25.456-34.62-25.456-56.513c0-46.84,34.621-84.515,93.679-84.515h33.093
		c3.055,0,5.091,2.037,5.091,5.091s-2.037,5.091-5.091,5.091h-33.602c-52.949,0-82.987,33.602-82.987,74.333
		c0,35.639,29.02,64.149,75.859,74.332c26.475,5.601,49.385,16.802,65.677,32.584c19.856,18.838,29.529,43.275,29.529,72.805
		C193.334,708.698,182.642,735.172,162.787,754.519z"/>
	<path style="fill:#FFFFFF;" d="M208.609,426.643c-2.546,0-5.091-2.546-5.091-5.091c0-2.546,2.545-5.091,5.091-5.091h225.542
		c3.564,0,5.091,2.545,5.091,5.091c0,2.545-1.527,5.091-5.091,5.091H326.725v346.206c0,3.563-2.545,5.091-5.091,5.091
		c-2.546,0-5.601-2.036-5.601-5.091V426.643H208.609z"/>
	<path style="fill:#FFFFFF;" d="M736.564,646.584c0,86.042-56.513,138.991-125.754,138.991s-125.245-52.949-125.245-138.991V421.551
		c0-2.546,2.545-5.091,5.091-5.091c2.545,0,5.6,2.037,5.6,5.091v225.543c0,78.405,50.913,128.299,114.553,128.299
		s115.062-48.366,115.062-128.299V421.551c0-3.055,2.546-5.091,5.091-5.091c2.546,0,5.601,2.037,5.601,5.091V646.584z"/>
	<path style="fill:#FFFFFF;" d="M1045.089,554.942v84.006c0,79.424-51.422,138.991-138.482,138.991h-86.042
		c-3.055,0-5.091-2.546-5.091-5.601V422.06c0-3.055,2.036-5.6,5.091-5.6h86.551C986.539,416.46,1045.089,468.9,1045.089,554.942z
		 M906.098,767.756c78.914,0,128.3-51.422,128.3-128.809v-84.006c0-77.387-48.876-128.299-127.791-128.299h-80.441v341.114H906.098z
		"/>
	<path style="fill:#FFFFFF;" d="M1127.564,422.06v350.278c0,3.055-2.546,5.601-5.601,5.601s-5.091-2.546-5.091-5.601V422.06
		c0-3.055,2.036-5.6,5.091-5.6S1127.564,419.005,1127.564,422.06z"/>
</g>
<g style="enable-background:new    ;">
	<path style="fill:#FF6E6A;" d="M1583.622,567.464c0,116.124-89.085,210.475-198.729,210.475
		c-109.643,0-197.749-94.351-197.749-210.475c0-95.388,62.653-173.149,142.928-199.07
		c-70.485-25.921-119.433-93.314-119.433-174.186c0-101.608,78.316-183.517,174.254-183.517
		c95.938,0,174.255,81.909,174.255,183.517c0,81.909-51.885,147.229-119.433,173.149
		C1523.906,394.315,1583.622,473.114,1583.622,567.464z M1564.043,568.5c0-104.719-80.274-189.738-179.149-189.738
		c-98.874,0-179.148,85.019-179.148,189.738c0,104.72,80.274,189.738,179.148,189.738
		C1483.768,758.239,1564.043,673.22,1564.043,568.5z M1384.893,358.026c85.17,0,155.655-73.614,155.655-164.854
		c0-90.203-70.485-162.781-155.655-162.781c-85.169,0-154.675,72.578-154.675,162.781
		C1230.219,284.412,1299.724,358.026,1384.893,358.026z"/>
</g>
<g style="enable-background:new    ;">
	<path style="fill:#FFFFFF;" d="M1768.428,747.673c-20.365,19.856-47.858,31.057-78.405,31.057
		c-16.292,0-32.584-4.073-47.349-12.728c-14.765-8.146-27.493-19.856-36.148-33.603c-2.036-3.055-0.509-8.146,4.073-8.146
		c2.037,0,3.564,1.019,4.582,2.546c16.292,24.947,46.84,41.748,76.369,41.748c55.494,0,97.243-40.729,97.243-95.206
		c0-68.731-61.096-89.097-87.061-94.697c-23.42-5.092-43.785-14.765-58.55-28.002c-16.801-15.273-25.456-34.62-25.456-56.513
		c0-46.84,34.62-84.515,93.679-84.515h33.094c3.055,0,5.091,2.037,5.091,5.091s-2.036,5.091-5.091,5.091h-33.603
		c-52.949,0-82.987,33.602-82.987,74.333c0,35.639,29.021,64.149,75.859,74.332c26.475,5.601,49.385,16.802,65.677,32.584
		c19.856,18.838,29.529,43.275,29.529,72.805C1798.974,701.852,1788.283,728.327,1768.428,747.673z"/>
</g>
</svg>
